<svg width="56" height="48" viewBox="0 0 56 48" fill="none" xmlns="http://www.w3.org/2000/svg">
<path d="M44.3332 28.6667C47.8098 25.26 51.3332 21.1767 51.3332 15.8333C51.3332 12.4297 49.9811 9.16551 47.5744 6.7588C45.1677 4.35208 41.9035 3 38.4998 3C34.3932 3 31.4998 4.16667 27.9998 7.66667C24.4998 4.16667 21.6065 3 17.4998 3C14.0962 3 10.832 4.35208 8.4253 6.7588C6.01858 9.16551 4.6665 12.4297 4.6665 15.8333C4.6665 21.2 8.1665 25.2833 11.6665 28.6667L27.9998 45L44.3332 28.6667Z" stroke="#8E0F0E" stroke-width="4" stroke-linecap="round" stroke-linejoin="round"/>
<path d="M7.51318 24H22.1665L23.3332 21.6667L27.9998 32.1667L32.6665 15.8333L36.1665 24H48.4632" stroke="#8E0F0E" stroke-width="4" stroke-linecap="round" stroke-linejoin="round"/>
</svg>
