<svg width="35" height="34" viewBox="0 0 35 34" fill="none" xmlns="http://www.w3.org/2000/svg">
<path d="M33.2809 14.9009L31.0142 12.2676C30.5809 11.7676 30.2309 10.8342 30.2309 10.1676V7.33424C30.2309 5.56758 28.7809 4.11758 27.0142 4.11758H24.1809C23.5309 4.11758 22.5809 3.76758 22.0809 3.33424L19.4475 1.06758C18.2975 0.0842448 16.4142 0.0842448 15.2475 1.06758L12.6309 3.35091C12.1309 3.76758 11.1809 4.11758 10.5309 4.11758H7.64754C5.88088 4.11758 4.43088 5.56758 4.43088 7.33424V10.1842C4.43088 10.8342 4.08088 11.7676 3.66421 12.2676L1.41421 14.9176C0.447542 16.0676 0.447542 17.9342 1.41421 19.0842L3.66421 21.7342C4.08088 22.2342 4.43088 23.1676 4.43088 23.8176V26.6676C4.43088 28.4342 5.88088 29.8842 7.64754 29.8842H10.5309C11.1809 29.8842 12.1309 30.2342 12.6309 30.6676L15.2642 32.9342C16.4142 33.9176 18.2975 33.9176 19.4642 32.9342L22.0975 30.6676C22.5975 30.2342 23.5309 29.8842 24.1975 29.8842H27.0309C28.7975 29.8842 30.2475 28.4342 30.2475 26.6676V23.8342C30.2475 23.1842 30.5975 22.2342 31.0309 21.7342L33.2975 19.1009C34.2642 17.9509 34.2642 16.0509 33.2809 14.9009ZM24.2809 13.8509L16.2309 21.9009C15.9975 22.1342 15.6809 22.2676 15.3475 22.2676C15.0142 22.2676 14.6975 22.1342 14.4642 21.9009L10.4309 17.8676C9.94754 17.3842 9.94754 16.5842 10.4309 16.1009C10.9142 15.6176 11.7142 15.6176 12.1975 16.1009L15.3475 19.2509L22.5142 12.0842C22.9975 11.6009 23.7975 11.6009 24.2809 12.0842C24.7642 12.5676 24.7642 13.3676 24.2809 13.8509Z" fill="#BB1818"/>
</svg>
