<svg width="28" height="27" viewBox="0 0 28 27" fill="none" xmlns="http://www.w3.org/2000/svg">
<path d="M26.7791 16.7306L17.2365 26.2733C16.9915 26.5155 16.7159 26.6971 16.4096 26.8181C16.1034 26.9394 15.7987 27 15.4957 27C15.193 27 14.8901 26.9394 14.5871 26.8181C14.2841 26.6971 14.0115 26.5155 13.7692 26.2733L1.22398 13.7569C0.987484 13.5394 0.808734 13.2804 0.687734 12.9799C0.566484 12.6794 0.505859 12.3634 0.505859 12.0319V2.45175C0.505859 1.7775 0.74186 1.20038 1.21386 0.720376C1.68611 0.240126 2.26736 0 2.95761 0H12.5377C12.862 0 13.1762 0.065625 13.4805 0.196875C13.7847 0.328125 14.0484 0.50475 14.2714 0.72675L26.7791 13.2431C27.0289 13.4884 27.211 13.7641 27.3255 14.0704C27.44 14.3766 27.4972 14.6847 27.4972 14.9948C27.4972 15.3048 27.44 15.6096 27.3255 15.9094C27.211 16.2089 27.0289 16.4826 26.7791 16.7306ZM16.1666 25.2116L25.7089 15.6694C25.9011 15.4769 25.9972 15.2509 25.9972 14.9914C25.9972 14.7316 25.9011 14.5056 25.7089 14.3134L12.9041 1.52888H2.95761C2.68861 1.52888 2.46273 1.61538 2.27998 1.78838C2.09723 1.96163 2.00586 2.18275 2.00586 2.45175V12.0233C2.00586 12.1385 2.02511 12.2539 2.06361 12.3694C2.10211 12.4846 2.16936 12.5904 2.26536 12.6866L14.8106 25.2116C15.0029 25.4039 15.2289 25.5 15.4886 25.5C15.7481 25.5 15.9741 25.4039 16.1666 25.2116ZM5.83048 6.83663C6.25198 6.83663 6.60936 6.69075 6.90261 6.399C7.19586 6.10725 7.34248 5.75313 7.34248 5.33663C7.34248 4.91188 7.19661 4.55087 6.90486 4.25362C6.61311 3.95637 6.25898 3.80775 5.84248 3.80775C5.41773 3.80775 5.05673 3.95525 4.75948 4.25025C4.46223 4.54525 4.31361 4.90337 4.31361 5.32463C4.31361 5.74612 4.46111 6.1035 4.75611 6.39675C5.05111 6.69 5.40923 6.83663 5.83048 6.83663Z" fill="#BB1818"/>
</svg>
