<svg width="32" height="28" viewBox="0 0 32 28" fill="none" xmlns="http://www.w3.org/2000/svg">
<path d="M15.5355 26.4133C15.7315 26.4133 15.9324 26.3691 16.1381 26.2806C16.3439 26.1923 16.5102 26.0847 16.6372 25.9577L28.3316 14.2633C28.7084 13.8866 28.9992 13.5011 29.2042 13.1068C29.409 12.7126 29.5114 12.2798 29.5114 11.8086C29.5114 11.3316 29.409 10.8686 29.2042 10.4196C28.9992 9.97057 28.7084 9.56045 28.3316 9.1892L22.7066 3.5642C22.3354 3.18745 21.9541 2.91107 21.5629 2.73507C21.1714 2.55907 20.7372 2.47107 20.2605 2.47107C19.7892 2.47107 19.3517 2.55907 18.948 2.73507C18.544 2.91107 18.1632 3.18745 17.8057 3.5642L16.4989 4.87107L19.2739 7.6547C19.5719 7.94695 19.794 8.2797 19.9402 8.65295C20.0862 9.02595 20.1592 9.4047 20.1592 9.7892C20.1592 10.5702 19.904 11.2159 19.3935 11.7264C18.883 12.2369 18.2374 12.4922 17.4566 12.4922C17.0719 12.4922 16.6964 12.4336 16.3301 12.3163C15.9639 12.1991 15.6345 11.9942 15.342 11.7017L12.4717 8.84045L5.99587 15.3163C5.84412 15.4683 5.73024 15.6409 5.65424 15.8342C5.57824 16.0274 5.54024 16.2221 5.54024 16.4181C5.54024 16.7721 5.65374 17.0639 5.88074 17.2937C6.10749 17.5234 6.39787 17.6383 6.75187 17.6383C6.94787 17.6383 7.14874 17.5941 7.35449 17.5056C7.56024 17.4173 7.72662 17.3097 7.85362 17.1827L12.6075 12.4288L13.6691 13.4904L8.92387 18.2443C8.77187 18.3961 8.65787 18.5686 8.58187 18.7618C8.50612 18.9551 8.46824 19.1498 8.46824 19.3461C8.46824 19.6808 8.58649 19.9664 8.82299 20.2029C9.05949 20.4394 9.34499 20.5577 9.67949 20.5577C9.87574 20.5577 10.0767 20.5134 10.2825 20.4249C10.4882 20.3364 10.6546 20.2287 10.7816 20.1017L15.8816 15.0107L16.9432 16.0719L11.8519 21.1719C11.7191 21.2989 11.61 21.4653 11.5245 21.6711C11.4387 21.8768 11.3959 22.0778 11.3959 22.2741C11.3959 22.6086 11.5141 22.8941 11.7506 23.1306C11.9874 23.3673 12.273 23.4857 12.6075 23.4857C12.8037 23.4857 12.9985 23.4477 13.1917 23.3717C13.385 23.2957 13.5575 23.1817 13.7092 23.0297L18.8092 17.9383L19.8709 18.9999L14.7709 24.0999C14.6191 24.2519 14.5052 24.4342 14.4292 24.6467C14.3532 24.8592 14.3152 25.0538 14.3152 25.2306C14.3152 25.5846 14.4397 25.8702 14.6887 26.0874C14.9377 26.3047 15.22 26.4133 15.5355 26.4133ZM15.5269 27.9133C14.7556 27.9133 14.0955 27.6312 13.5465 27.0669C12.9975 26.5024 12.7566 25.8057 12.8239 24.9767C11.9739 24.9864 11.2661 24.7327 10.7006 24.2154C10.1354 23.6979 9.86712 22.9758 9.89587 22.0491C8.96912 22.0586 8.23887 21.7937 7.70512 21.2544C7.17137 20.7149 6.92862 20.0038 6.97687 19.1211C6.14212 19.1308 5.44399 18.8962 4.88249 18.4172C4.32099 17.9384 4.04024 17.2721 4.04024 16.4181C4.04024 16.0336 4.11474 15.6486 4.26374 15.2631C4.41274 14.8773 4.63337 14.5383 4.92562 14.2461L12.4717 6.70857L16.3459 10.5827C16.4729 10.7154 16.6296 10.8246 16.8161 10.9101C17.0026 10.9956 17.2132 11.0383 17.448 11.0383C17.769 11.0383 18.0526 10.9263 18.2989 10.7023C18.5451 10.4783 18.6682 10.1864 18.6682 9.8267C18.6682 9.5922 18.6254 9.38169 18.5396 9.19519C18.4541 9.00869 18.345 8.85195 18.2122 8.72495L13.0519 3.5642C12.6806 3.18745 12.2945 2.91107 11.8935 2.73507C11.4925 2.55907 11.0536 2.47107 10.5769 2.47107C10.1056 2.47107 9.67774 2.55907 9.29324 2.73507C8.90849 2.91107 8.52762 3.18745 8.15062 3.5642L3.58424 8.1392C3.26324 8.46045 3.00374 8.8432 2.80574 9.28745C2.60749 9.7317 2.50262 10.1903 2.49112 10.6633C2.47962 11.0018 2.50849 11.3273 2.57774 11.6398C2.64699 11.9523 2.75662 12.2461 2.90662 12.5211L1.76999 13.6577C1.51799 13.2557 1.32087 12.7927 1.17862 12.2687C1.03637 11.7447 0.970991 11.2096 0.982491 10.6633C0.993991 9.98257 1.13049 9.3302 1.39199 8.7062C1.65349 8.0822 2.02762 7.52695 2.51437 7.04045L7.05187 2.50295C7.57487 1.98545 8.12824 1.60082 8.71199 1.34907C9.29549 1.09707 9.92674 0.971069 10.6057 0.971069C11.2845 0.971069 11.9109 1.09707 12.4849 1.34907C13.0589 1.60082 13.6045 1.98545 14.1217 2.50295L15.4286 3.80944L16.7355 2.50295C17.2585 1.98545 17.807 1.60082 18.381 1.34907C18.955 1.09707 19.5815 0.971069 20.2605 0.971069C20.9392 0.971069 21.5705 1.09707 22.1542 1.34907C22.7377 1.60082 23.2882 1.98545 23.8057 2.50295L29.3932 8.09045C29.9105 8.6077 30.3095 9.18844 30.5902 9.8327C30.871 10.4769 31.0114 11.1384 31.0114 11.8172C31.0114 12.4962 30.871 13.1227 30.5902 13.6967C30.3095 14.2707 29.9105 14.8163 29.3932 15.3336L17.6989 27.0193C17.3874 27.3308 17.0484 27.5577 16.6819 27.6999C16.3156 27.8422 15.9306 27.9133 15.5269 27.9133Z" fill="#BB1818"/>
</svg>
