<svg width="28" height="25" viewBox="0 0 28 25" fill="none" xmlns="http://www.w3.org/2000/svg">
<path d="M6.51754 8.4155L3.83479 9.90388C3.54254 10.0654 3.25404 10.1105 2.96929 10.0393C2.68479 9.96825 2.46179 9.78662 2.30029 9.49437L0.454161 6.26338C0.292661 5.97113 0.247411 5.67787 0.318411 5.38362C0.389661 5.08937 0.571411 4.8615 0.863661 4.7L7.98866 0.5H9.80591C10.0887 0.5 10.3132 0.583126 10.4794 0.749376C10.6459 0.915876 10.7292 1.1405 10.7292 1.42325V1.71162C10.7292 2.59438 11.0565 3.36313 11.7113 4.01787C12.366 4.67263 13.1348 5 14.0175 5C14.9003 5 15.669 4.67263 16.3238 4.01787C16.9785 3.36313 17.3059 2.59438 17.3059 1.71162V1.42325C17.3059 1.1405 17.3892 0.915876 17.5557 0.749376C17.7219 0.583126 17.9464 0.5 18.2292 0.5H20.0464L27.1714 4.7C27.4637 4.8615 27.6454 5.08937 27.7167 5.38362C27.7877 5.67787 27.7424 5.97113 27.5809 6.26338L25.7348 9.49437C25.5733 9.78662 25.3517 9.96688 25.0699 10.0351C24.7882 10.1034 24.4983 10.0567 24.2003 9.89525L21.5175 8.42413V23.3461C21.5175 23.6749 21.4074 23.9494 21.1872 24.1696C20.9669 24.3899 20.6924 24.5 20.3637 24.5H7.67141C7.34266 24.5 7.06816 24.3899 6.84791 24.1696C6.62766 23.9494 6.51754 23.6749 6.51754 23.3461V8.4155ZM8.01754 5.9V23H20.0175V5.9L24.6098 8.42112L26.127 5.825L19.7059 2.01725H18.7542C18.6677 3.273 18.1778 4.33412 17.2845 5.20062C16.391 6.06687 15.302 6.5 14.0175 6.5C12.733 6.5 11.644 6.06687 10.7505 5.20062C9.85729 4.33412 9.36741 3.273 9.28091 2.01725H8.32916L1.90804 5.825L3.42529 8.42112L8.01754 5.9Z" fill="#BB1818"/>
</svg>
