<svg width="29" height="29" viewBox="0 0 29 29" fill="none" xmlns="http://www.w3.org/2000/svg">
<path d="M20.5326 14.0768L14.8847 8.6655C14.225 8.03075 13.6745 7.32075 13.2332 6.5355C12.7917 5.75 12.571 4.89462 12.571 3.96937C12.571 2.86662 12.957 1.92937 13.729 1.15762C14.5007 0.385875 15.4379 0 16.5404 0C17.3596 0 18.1049 0.221624 18.7761 0.664874C19.4471 1.10812 20.0326 1.64613 20.5326 2.27888C21.0326 1.64613 21.6182 1.10812 22.2895 0.664874C22.9605 0.221624 23.7056 0 24.5249 0C25.6276 0 26.5649 0.385875 27.3366 1.15762C28.1084 1.92937 28.4942 2.86662 28.4942 3.96937C28.4942 4.89462 28.275 5.75 27.8365 6.5355C27.398 7.32075 26.849 8.03075 26.1895 8.6655L20.5326 14.0768ZM20.5326 12.0116L25.024 7.71075C25.5567 7.19725 26.0182 6.6285 26.4085 6.0045C26.799 5.38025 26.9942 4.70187 26.9942 3.96937C26.9942 3.28462 26.7539 2.70187 26.2731 2.22112C25.7924 1.74037 25.2096 1.5 24.5249 1.5C23.9249 1.5 23.387 1.67937 22.9112 2.03812C22.4352 2.39662 22.0077 2.81913 21.6287 3.30563L20.5326 4.67888L19.4365 3.30563C19.0577 2.81913 18.6304 2.39662 18.1544 2.03812C17.6784 1.67937 17.1404 1.5 16.5404 1.5C15.8559 1.5 15.2732 1.74037 14.7925 2.22112C14.3115 2.70187 14.071 3.28462 14.071 3.96937C14.071 4.70187 14.2662 5.38025 14.6567 6.0045C15.0472 6.6285 15.5087 7.19725 16.0412 7.71075L20.5326 12.0116ZM6.59985 23.4806L17.9481 26.7923L26.9309 24.0173C26.9019 23.5615 26.7657 23.2331 26.5225 23.0321C26.279 22.8311 26.0035 22.7306 25.696 22.7306H18.5792C17.945 22.7306 17.3702 22.7056 16.855 22.6556C16.3395 22.6056 15.8115 22.4865 15.271 22.2983L11.9856 21.222L12.4934 19.7393L15.5309 20.8384C16.0136 21.0211 16.5616 21.1307 17.1749 21.1672C17.7884 21.2037 18.6287 21.2249 19.696 21.2306C19.696 20.7634 19.61 20.3855 19.438 20.097C19.266 19.8085 19.0194 19.6076 18.6981 19.4944L10.0675 16.3268C10.0097 16.3078 9.95673 16.2934 9.90848 16.2836C9.86048 16.2741 9.8076 16.2694 9.74985 16.2694H6.59985V23.4806ZM0.599854 27V14.7694H9.7161C9.8561 14.7694 10.0001 14.7851 10.1481 14.8166C10.2961 14.8484 10.4336 14.8855 10.5606 14.928L19.2287 18.1039C19.7652 18.3076 20.2272 18.674 20.6147 19.203C21.0022 19.7317 21.196 20.4076 21.196 21.2306H25.696C26.6 21.2306 27.2924 21.5134 27.7731 22.0789C28.2539 22.6441 28.4942 23.3614 28.4942 24.2306V25.1539L18.0231 28.3845L6.59985 25.0556V27H0.599854ZM2.09985 25.5H5.09985V16.2694H2.09985V25.5Z" fill="#BB1818"/>
</svg>
