<svg width="156" height="32" viewBox="0 0 156 32" fill="none" xmlns="http://www.w3.org/2000/svg">
<path d="M10.4874 0C10.4874 0 0 15.7311 0 21.5126C0 27.2941 4.70588 32 10.4874 32C16.2689 32 20.9748 27.2941 20.9748 21.5126C20.9748 15.7311 10.4874 0 10.4874 0ZM17.5462 21.5798C16.8739 24.9412 13.916 27.3613 10.4874 27.3613C7.05882 27.3613 4.10084 24.9412 3.42857 21.5798C3.36134 21.2437 3.56302 20.9076 3.96639 20.8403C4.30252 20.7731 4.63866 20.9748 4.70588 21.3781C5.2437 24.1345 7.73109 26.084 10.4874 26.084C13.3109 26.084 15.7311 24.0672 16.2689 21.3781C16.3361 21.042 16.6723 20.7731 17.0084 20.8403C17.4118 20.9076 17.6134 21.2437 17.5462 21.5798Z" fill="#F2F2F2"/>
<path d="M39.4626 13.1093C37.4457 13.1093 35.6978 13.9832 34.8239 16.0673V8.94122C34.8239 8.60509 34.555 8.33618 34.2189 8.33618H28.9752C28.639 8.33618 28.3701 8.60509 28.3701 8.94122V27.2269H34.8239V23.1933C34.8239 19.5631 35.3617 17.4118 36.639 17.4118C37.3785 17.4118 37.513 18.2858 37.513 19.7648V27.2269H43.8323V18.4202C43.7651 15.1261 42.6894 13.1093 39.4626 13.1093Z" fill="#F2F2F2"/>
<path d="M51.6978 22.3192C55.5297 22.0503 59.0255 20.5041 59.0255 17.2772C59.0255 14.5209 56.4037 13.1091 53.1096 13.1091C48.3365 13.1091 44.7734 15.9327 44.7734 20.9747C44.7734 26.2856 48.8071 27.8318 52.8407 27.8318C55.0592 27.8318 56.807 27.3612 58.1516 26.4873C58.286 26.4201 58.4205 26.2184 58.4205 26.0167L58.5549 23.1932C58.5549 22.7898 58.1516 22.4537 57.7482 22.6553C56.6726 23.1932 55.3281 23.3948 54.2524 23.3948C52.9751 23.3948 52.1684 23.0587 51.6978 22.3192ZM52.8407 16.6049C53.244 16.6049 53.7146 16.7394 53.7146 17.4789C53.7146 18.5545 52.639 19.1595 51.16 19.4285C51.2944 17.5461 51.8323 16.6049 52.8407 16.6049Z" fill="#F2F2F2"/>
<path d="M79.1934 13.1091C77.1093 13.1091 75.5631 14.0503 74.7564 16.5377C74.4875 14.3864 73.1429 13.1091 70.7228 13.1091C68.5715 13.1091 67.0253 14.1175 66.2186 16.7394L65.8824 14.1175C65.8152 13.8486 65.6135 13.5797 65.3446 13.5797H60.6387C60.3026 13.5797 60.0337 13.8486 60.0337 14.1848V27.2268H66.353V23.1932C66.353 19.5629 66.353 17.4117 67.6303 17.4117C68.3026 17.4117 68.5043 18.2856 68.5043 19.7646V27.2268H74.8236V23.1932C74.8236 19.5629 74.8236 17.4117 76.1009 17.4117C76.8404 17.4117 76.9749 18.2856 76.9749 19.7646V27.2268H83.2942V18.4201C83.3614 15.1259 82.2186 13.1091 79.1934 13.1091Z" fill="#F2F2F2"/>
<path d="M92.2353 13.1091C87.4622 13.1091 84.2354 15.8654 84.2354 20.6385C84.2354 25.4117 87.4622 27.8318 92.1009 27.8318C96.8068 27.8318 99.9664 25.4116 99.9664 20.5713C100.101 15.9999 97.1429 13.1091 92.2353 13.1091ZM92.1681 24.336C91.1597 24.336 90.6891 23.4621 90.6891 20.4369C90.6891 17.6806 91.0253 16.6049 92.1681 16.6049C93.311 16.6049 93.5799 17.6806 93.5799 20.4369C93.6471 23.3948 93.311 24.336 92.1681 24.336Z" fill="#F2F2F2"/>
<path d="M108.638 25.2773C105.815 25.2773 104.47 23.5294 104.47 20.7731C104.47 17.5462 106.286 15.9328 108.907 15.9328C109.58 15.9328 110.252 16.0672 110.857 16.2689C111.193 16.4034 111.596 16.1345 111.596 15.7311L111.664 14.6555C111.664 14.3866 111.529 14.1849 111.328 14.1176C110.386 13.7143 109.243 13.5798 108.235 13.5798C104.134 13.5798 101.176 16.0672 101.176 20.7059C101.176 25.0084 103.596 27.6303 107.899 27.6303C109.042 27.6303 110.588 27.3613 111.596 26.6891C111.731 26.5546 111.865 26.4202 111.865 26.2185V25.2773C111.865 24.8739 111.462 24.605 111.059 24.7395C110.386 25.1429 109.58 25.2773 108.638 25.2773Z" fill="#F2F2F2"/>
<path d="M114.689 8.06733C113.21 7.79842 111.933 9.21018 112.403 10.6892C112.605 11.227 113.076 11.6976 113.613 11.8993C115.092 12.4371 116.504 11.1598 116.235 9.61354C116.101 8.87405 115.429 8.20178 114.689 8.06733ZM112.74 14.5211V27.2942H115.832V14.5211C115.832 14.185 115.563 13.9161 115.227 13.9161H113.277C112.941 13.9833 112.74 14.2522 112.74 14.5211Z" fill="#F2F2F2"/>
<path d="M123.429 13.5798C119.395 13.5798 116.773 16.2689 116.773 20.6387C116.773 25.0084 119.328 27.6303 123.362 27.6303C127.395 27.6303 130.017 25.0084 130.017 20.6387C130.017 16.3361 127.597 13.5798 123.429 13.5798ZM123.429 25.7479C121.21 25.7479 120 24.0672 120 20.6387C120 17.2773 121.21 15.5966 123.429 15.5966C125.647 15.5966 126.857 17.3445 126.857 20.6387C126.857 24 125.647 25.7479 123.429 25.7479Z" fill="#F2F2F2"/>
<path d="M139.16 13.5798C136.874 13.5798 135.126 14.8571 134.118 17.0084L133.916 14.521C133.916 14.2521 133.647 13.9832 133.378 13.9832H131.63C131.294 13.9832 131.025 14.2521 131.025 14.5882V27.3613H134.118V21.3782C134.118 18.4874 135.731 15.8655 137.95 15.8655C139.563 15.8655 139.899 17.2773 139.899 19.6975V27.2269H142.992V18.6219C142.992 15.0588 141.714 13.5798 139.16 13.5798Z" fill="#F2F2F2"/>
<path d="M147.092 21.647C151.529 21.7142 155.563 20.2352 155.563 17.0083C155.563 14.7226 153.546 13.647 150.992 13.647C146.824 13.647 143.798 16.5377 143.798 21.1092C143.798 25.5461 146.756 27.6974 150.521 27.6974C152.202 27.6974 153.882 27.294 155.16 26.4201C155.294 26.2856 155.361 26.1512 155.361 25.9495V25.0755C155.361 24.605 154.891 24.336 154.487 24.5377C153.412 25.1428 152.134 25.3445 151.059 25.3445C148.639 25.3445 147.361 23.9999 147.092 21.647ZM150.857 15.5293C151.731 15.5293 152.874 15.7982 152.874 17.0755C152.874 19.1596 149.983 19.8991 147.092 19.9663C147.227 17.0755 148.84 15.5293 150.857 15.5293Z" fill="#F2F2F2"/>
</svg>
