<svg width="156" height="32" viewBox="0 0 156 32" fill="none" xmlns="http://www.w3.org/2000/svg">
<path d="M10.4874 0C10.4874 0 0 15.7311 0 21.5126C0 27.2941 4.70588 32 10.4874 32C16.2689 32 20.9748 27.2941 20.9748 21.5126C20.9748 15.7311 10.4874 0 10.4874 0ZM17.5462 21.5798C16.8739 24.9412 13.916 27.3613 10.4874 27.3613C7.05882 27.3613 4.10084 24.9412 3.42857 21.5798C3.36134 21.2437 3.56302 20.9076 3.96639 20.8403C4.30252 20.7731 4.63866 20.9748 4.70588 21.3781C5.2437 24.1345 7.73109 26.084 10.4874 26.084C13.3109 26.084 15.7311 24.0672 16.2689 21.3781C16.3361 21.042 16.6723 20.7731 17.0084 20.8403C17.4118 20.9076 17.6134 21.2437 17.5462 21.5798Z" fill="#BB0A08"/>
<path d="M39.4626 13.1093C37.4457 13.1093 35.6978 13.9832 34.8239 16.0673V8.94122C34.8239 8.60509 34.555 8.33618 34.2189 8.33618H28.9752C28.639 8.33618 28.3701 8.60509 28.3701 8.94122V27.2269H34.8239V23.1933C34.8239 19.5631 35.3617 17.4118 36.639 17.4118C37.3785 17.4118 37.513 18.2858 37.513 19.7648V27.2269H43.8323V18.4202C43.7651 15.1261 42.6894 13.1093 39.4626 13.1093Z" fill="#BB0A08"/>
<path d="M51.6988 22.3195C55.5307 22.0506 59.0265 20.5043 59.0265 17.2774C59.0265 14.5211 56.4047 13.1094 53.1105 13.1094C48.3374 13.1094 44.7744 15.9329 44.7744 20.9749C44.7744 26.2858 48.808 27.8321 52.8416 27.8321C55.0601 27.8321 56.808 27.3615 58.1526 26.4875C58.287 26.4203 58.4215 26.2186 58.4215 26.0169L58.5559 23.1934C58.5559 22.79 58.1526 22.4539 57.7492 22.6556C56.6736 23.1934 55.329 23.3951 54.2534 23.3951C52.9761 23.3951 52.1694 23.059 51.6988 22.3195ZM52.8416 16.6052C53.245 16.6052 53.7156 16.7396 53.7156 17.4791C53.7156 18.5548 52.64 19.1598 51.161 19.4287C51.2954 17.5463 51.8332 16.6052 52.8416 16.6052Z" fill="#BB0A08"/>
<path d="M79.1929 13.1094C77.1088 13.1094 75.5626 14.0506 74.7559 16.5379C74.487 14.3867 73.1424 13.1094 70.7223 13.1094C68.571 13.1094 67.0248 14.1178 66.2181 16.7396L65.8819 14.1178C65.8147 13.8489 65.613 13.58 65.3441 13.58H60.6382C60.3021 13.58 60.0332 13.8489 60.0332 14.185V27.227H66.3525V23.1934C66.3525 19.5632 66.3525 17.4119 67.6298 17.4119C68.3021 17.4119 68.5038 18.2858 68.5038 19.7648V27.227H74.8231V23.1934C74.8231 19.5632 74.8231 17.4119 76.1004 17.4119C76.8399 17.4119 76.9744 18.2858 76.9744 19.7648V27.227H83.2937V18.4203C83.3609 15.1262 82.2181 13.1094 79.1929 13.1094Z" fill="#BB0A08"/>
<path d="M92.2363 13.1094C87.4632 13.1094 84.2363 15.8657 84.2363 20.6388C84.2363 25.4119 87.4632 27.8321 92.1019 27.8321C96.8078 27.8321 99.9674 25.4119 99.9674 20.5716C100.102 16.0001 97.1439 13.1094 92.2363 13.1094ZM92.1691 24.3363C91.1607 24.3363 90.6901 23.4623 90.6901 20.4371C90.6901 17.6808 91.0262 16.6052 92.1691 16.6052C93.312 16.6052 93.5809 17.6808 93.5809 20.4371C93.6481 23.3951 93.312 24.3363 92.1691 24.3363Z" fill="#BB0A08"/>
<path d="M108.639 25.2773C105.815 25.2773 104.471 23.5294 104.471 20.7731C104.471 17.5462 106.286 15.9328 108.908 15.9328C109.58 15.9328 110.252 16.0672 110.857 16.2689C111.194 16.4034 111.597 16.1345 111.597 15.7311L111.664 14.6555C111.664 14.3866 111.53 14.1849 111.328 14.1176C110.387 13.7143 109.244 13.5798 108.236 13.5798C104.135 13.5798 101.177 16.0672 101.177 20.7059C101.177 25.0084 103.597 27.6303 107.899 27.6303C109.042 27.6303 110.589 27.3613 111.597 26.6891C111.731 26.5546 111.866 26.4202 111.866 26.2185V25.2773C111.866 24.8739 111.462 24.605 111.059 24.7395C110.387 25.1429 109.58 25.2773 108.639 25.2773Z" fill="#262626"/>
<path d="M114.69 8.06733C113.211 7.79842 111.933 9.21018 112.404 10.6892C112.606 11.227 113.076 11.6976 113.614 11.8993C115.093 12.4371 116.505 11.1598 116.236 9.61354C116.101 8.87405 115.429 8.20178 114.69 8.06733ZM112.74 14.5211V27.2942H115.832V14.5211C115.832 14.185 115.564 13.9161 115.227 13.9161H113.278C112.942 13.9833 112.74 14.2522 112.74 14.5211Z" fill="#262626"/>
<path d="M123.429 13.5798C119.395 13.5798 116.773 16.2689 116.773 20.6387C116.773 25.0084 119.328 27.6303 123.362 27.6303C127.395 27.6303 130.017 25.0084 130.017 20.6387C130.017 16.3361 127.597 13.5798 123.429 13.5798ZM123.429 25.7479C121.21 25.7479 120 24.0672 120 20.6387C120 17.2773 121.21 15.5966 123.429 15.5966C125.647 15.5966 126.857 17.3445 126.857 20.6387C126.857 24 125.647 25.7479 123.429 25.7479Z" fill="#262626"/>
<path d="M139.16 13.5798C136.874 13.5798 135.126 14.8571 134.118 17.0084L133.916 14.521C133.916 14.2521 133.647 13.9832 133.378 13.9832H131.63C131.294 13.9832 131.025 14.2521 131.025 14.5882V27.3613H134.118V21.3782C134.118 18.4874 135.731 15.8655 137.95 15.8655C139.563 15.8655 139.899 17.2773 139.899 19.6975V27.2269H142.992V18.6219C142.992 15.0588 141.714 13.5798 139.16 13.5798Z" fill="#262626"/>
<path d="M147.093 21.6472C151.53 21.7144 155.564 20.2355 155.564 17.0086C155.564 14.7228 153.547 13.6472 150.992 13.6472C146.824 13.6472 143.799 16.538 143.799 21.1094C143.799 25.5464 146.757 27.6976 150.522 27.6976C152.202 27.6976 153.883 27.2943 155.16 26.4203C155.295 26.2859 155.362 26.1514 155.362 25.9497V25.0758C155.362 24.6052 154.891 24.3363 154.488 24.538C153.412 25.143 152.135 25.3447 151.059 25.3447C148.639 25.3447 147.362 24.0002 147.093 21.6472ZM150.858 15.5296C151.732 15.5296 152.874 15.7985 152.874 17.0758C152.874 19.1598 149.984 19.8993 147.093 19.9665C147.227 17.0758 148.841 15.5296 150.858 15.5296Z" fill="#262626"/>
</svg>
